<svg xmlns="http://www.w3.org/2000/svg" viewBox="0 0 1000 200">
  <!-- SHADES - adjusted spacing -->
  <path id="S1" d="M60,100 C80,100 90,90 90,80 C90,60 70,60 60,60 C40,60 30,70 30,90 C30,110 40,120 60,120 C80,120 90,130 90,140 C90,160 70,160 60,160 C40,160 30,150 30,140" fill="none" stroke="black" stroke-width="3">
    <animate attributeName="stroke-dasharray" from="300" to="300" dur="0.5s" />
    <animate attributeName="stroke-dashoffset" from="300" to="0" dur="0.5s" fill="freeze" />
  </path>
  
  <path id="H" d="M120,60 L120,160 M120,110 L160,110 M160,60 L160,160" fill="none" stroke="black" stroke-width="3">
    <animate attributeName="stroke-dasharray" from="300" to="300" dur="0.5s" begin="0.5s" />
    <animate attributeName="stroke-dashoffset" from="300" to="0" dur="0.5s" begin="0.5s" fill="freeze" />
  </path>
  
  <path id="A" d="M190,160 L220,60 L250,160 M200,120 L240,120" fill="none" stroke="black" stroke-width="3">
    <animate attributeName="stroke-dasharray" from="300" to="300" dur="0.5s" begin="1s" />
    <animate attributeName="stroke-dashoffset" from="300" to="0" dur="0.5s" begin="1s" fill="freeze" />
  </path>
  
  <path id="D" d="M280,60 L280,160 C340,160 340,60 280,60" fill="none" stroke="black" stroke-width="3">
    <animate attributeName="stroke-dasharray" from="300" to="300" dur="0.5s" begin="1.5s" />
    <animate attributeName="stroke-dashoffset" from="300" to="0" dur="0.5s" begin="1.5s" fill="freeze" />
  </path>
  
  <path id="E" d="M370,60 L370,160 M370,60 L410,60 M370,110 L400,110 M370,160 L410,160" fill="none" stroke="black" stroke-width="3">
    <animate attributeName="stroke-dasharray" from="300" to="300" dur="0.5s" begin="2s" />
    <animate attributeName="stroke-dashoffset" from="300" to="0" dur="0.5s" begin="2s" fill="freeze" />
  </path>
  
  <!-- Adjusted S position -->
  <path id="S2" d="M455,100 C475,100 485,90 485,80 C485,60 465,60 455,60 C435,60 425,70 425,90 C425,110 435,120 455,120 C475,120 485,130 485,140 C485,160 465,160 455,160 C435,160 425,150 425,140" fill="none" stroke="black" stroke-width="3">
    <animate attributeName="stroke-dasharray" from="300" to="300" dur="0.5s" begin="2.5s" />
    <animate attributeName="stroke-dashoffset" from="300" to="0" dur="0.5s" begin="2.5s" fill="freeze" />
  </path>
  
  <!-- MUSIC with adjusted U-S spacing -->
  <path id="M" d="M540,160 L540,60 L570,120 L600,60 L600,160" fill="none" stroke="black" stroke-width="3">
    <animate attributeName="stroke-dasharray" from="300" to="300" dur="0.5s" begin="3s" />
    <animate attributeName="stroke-dashoffset" from="300" to="0" dur="0.5s" begin="3s" fill="freeze" />
  </path>
  
  <path id="U" d="M630,60 L630,120 Q630,160 650,160 Q670,160 670,120 L670,60" fill="none" stroke="black" stroke-width="3">
    <animate attributeName="stroke-dasharray" from="300" to="300" dur="0.5s" begin="3.5s" />
    <animate attributeName="stroke-dashoffset" from="300" to="0" dur="0.5s" begin="3.5s" fill="freeze" />
  </path>
  
  <!-- Adjusted S position -->
  <path id="S3" d="M715,100 C735,100 745,90 745,80 C745,60 725,60 715,60 C695,60 685,70 685,90 C685,110 695,120 715,120 C735,120 745,130 745,140 C745,160 725,160 715,160 C695,160 685,150 685,140" fill="none" stroke="black" stroke-width="3">
    <animate attributeName="stroke-dasharray" from="300" to="300" dur="0.5s" begin="4s" />
    <animate attributeName="stroke-dashoffset" from="300" to="0" dur="0.5s" begin="4s" fill="freeze" />
  </path>
  
  <path id="I" d="M775,60 L775,160 M760,60 L790,60 M760,160 L790,160" fill="none" stroke="black" stroke-width="3">
    <animate attributeName="stroke-dasharray" from="300" to="300" dur="0.5s" begin="4.5s" />
    <animate attributeName="stroke-dashoffset" from="300" to="0" dur="0.5s" begin="4.5s" fill="freeze" />
  </path>
  
  <path id="C" d="M850,70 C820,70 790,85 790,110 C790,135 820,150 850,150" fill="none" stroke="black" stroke-width="3">
    <animate attributeName="stroke-dasharray" from="300" to="300" dur="0.5s" begin="5s" />
    <animate attributeName="stroke-dashoffset" from="300" to="0" dur="0.5s" begin="5s" fill="freeze" />
  </path>
</svg>