<?xml version="1.0" encoding="UTF-8"?>
<svg id="a" data-name="Layer_1" xmlns="http://www.w3.org/2000/svg" width="210mm" height="210mm" viewBox="0 0 595.28 595.28">
  <polygon points="0 .28 0 595.55 595.28 595.55 595.28 .28 0 .28 0 .28"/>
  <path d="M420.21,286.55c-.52-4.47,3.14-61.77,2.88-70.97-.26-9.2-1.38-55-12.3-68.61-20.68-25.76-117.26-1.31-143.43,6.83M376.04,135.47c-5.5-2.37-59.88-32.7-93.51-30.03-59.1,4.69-104.43,137.74-107.84,141.68M195.19,198.83c-6.8.26-50.86,3.87-60.28,23.84-9.42,19.98,10.34,37,28.4,50.73,32.85,24.97,109.01,48.1,188.32,46,79.31-2.1,114.04-6.23,110.98-39.17-1.83-19.71-31.06-32.82-39.7-36.76" style="fill: #fff;"/>
  <path d="M302.18,353.79c-1.69.21-5.28,1.81-6.33,3.82-1.06,2.02-10.77,33.79-22.8,37.09-12.04,3.29-36.53-4.78-43.92-14.77-7.39-9.99-12.03-30.18-12.67-35.49-.63-5.31-.63-8.71-4.86-10.31-4.22-1.59-6.12-1.81-8.02,2.44-1.9,4.25-5.91,17.64-9.71,21.04-3.8,3.4-8.87,6.8-15.41,5.53-6.54-1.27-24.28-9.14-28.71-17.64-4.43-8.5-8.66-42.51-9.08-46.97-.42-4.46-2.53-6.16-2.53-6.16,0,0,1.69-12.11,1.9-12.75.21-.64,3.17-1.49,3.17-1.49,0,0,43.28,14.88,52.78,25.93,9.5,11.05,7.6,14.77,11.19,16.58,3.59,1.81,8.23,4.25,10.56,3.4s5.7-5.87,9.92-5.87,17.74.45,27.45,3.95c9.71,3.51,46.24,16.37,47.93,17.43,1.69,1.06,1.69,4.25,1.69,4.25,0,0-.85,9.78-2.53,9.99h0Z" style="fill: #fff;"/>
  <g>
    <path d="M167.4,472.81c-.82,1.66-1.94,3.07-3.36,4.24-1.42,1.17-3.13,2.08-5.11,2.73-1.98.65-4.17.98-6.54.98-3.92,0-7.46-.65-10.6-1.96-3.15-1.31-6.2-3.27-9.14-5.88l2.38-2.73c1.35,1.26,2.7,2.34,4.03,3.25s2.69,1.66,4.09,2.24c1.4.58,2.87,1.03,4.41,1.33,1.54.3,3.22.46,5.04.46s3.5-.25,5.04-.74,2.85-1.17,3.92-2.03c1.07-.86,1.91-1.89,2.52-3.08.61-1.19.91-2.49.91-3.89v-.14c0-1.31-.2-2.47-.6-3.5-.4-1.03-1.12-1.96-2.17-2.8-1.05-.84-2.46-1.6-4.23-2.28-1.77-.68-4.06-1.29-6.86-1.85-2.94-.61-5.46-1.32-7.56-2.14-2.1-.82-3.81-1.77-5.15-2.87-1.33-1.1-2.3-2.37-2.9-3.82-.61-1.45-.91-3.1-.91-4.97v-.14c0-1.82.4-3.51,1.19-5.07.79-1.56,1.89-2.93,3.29-4.1,1.4-1.17,3.06-2.08,4.97-2.73,1.91-.65,4.01-.98,6.3-.98,3.55,0,6.62.49,9.21,1.47,2.59.98,5.12,2.47,7.6,4.48l-2.31,2.87c-2.33-2.01-4.68-3.43-7.04-4.27-2.36-.84-4.89-1.26-7.59-1.26-1.82,0-3.47.25-4.94.74-1.47.49-2.73,1.16-3.78,2-1.05.84-1.85,1.82-2.42,2.94s-.84,2.31-.84,3.57v.14c0,1.31.2,2.49.6,3.54.4,1.05,1.12,2.01,2.17,2.87,1.05.86,2.51,1.64,4.38,2.34,1.87.7,4.25,1.35,7.14,1.96,5.69,1.17,9.8,2.81,12.32,4.94,2.52,2.12,3.78,4.98,3.78,8.58v.14c0,1.96-.41,3.77-1.23,5.42Z" style="fill: #fff;"/>
    <path d="M223.3,480.05v-22.96h-31.36v22.96h-3.64v-49h3.64v22.75h31.36v-22.75h3.64v49h-3.64Z" style="fill: #fff;"/>
    <path d="M290.15,480.05l-6.23-13.72h-28.91l-6.23,13.72h-3.78l22.82-49.35h3.5l22.82,49.35h-3.99ZM269.5,434.69l-12.95,28.35h25.83l-12.88-28.35Z" style="fill: #fff;"/>
    <path d="M352.66,465.21c-1.26,2.99-3.04,5.58-5.36,7.77-2.31,2.19-5.06,3.92-8.26,5.18-3.2,1.26-6.71,1.89-10.54,1.89h-16.31v-49h16.31c3.83,0,7.34.62,10.54,1.86,3.2,1.24,5.95,2.95,8.26,5.14,2.31,2.19,4.1,4.77,5.36,7.74,1.26,2.96,1.89,6.17,1.89,9.62v.14c0,3.45-.63,6.67-1.89,9.66ZM350.76,455.55c0-2.9-.52-5.64-1.57-8.22-1.05-2.58-2.53-4.82-4.45-6.74-1.91-1.92-4.25-3.44-7-4.57-2.75-1.12-5.83-1.69-9.24-1.69h-12.67v42.42h12.67c3.41,0,6.49-.55,9.24-1.65,2.75-1.1,5.09-2.6,7-4.49,1.91-1.9,3.39-4.12,4.45-6.67,1.05-2.55,1.57-5.3,1.57-8.25v-.14Z" style="fill: #fff;"/>
    <path d="M374.63,480.05v-49h34.86v3.29h-31.22v19.39h28.07v3.29h-28.07v19.74h31.57v3.29h-35.21Z" style="fill: #fff;"/>
    <path d="M460.84,472.81c-.82,1.66-1.94,3.07-3.36,4.24-1.42,1.17-3.13,2.08-5.11,2.73-1.98.65-4.17.98-6.54.98-3.92,0-7.46-.65-10.61-1.96-3.15-1.31-6.19-3.27-9.13-5.88l2.38-2.73c1.35,1.26,2.7,2.34,4.03,3.25s2.7,1.66,4.09,2.24c1.4.58,2.87,1.03,4.41,1.33,1.54.3,3.22.46,5.04.46s3.5-.25,5.04-.74,2.85-1.17,3.92-2.03c1.07-.86,1.91-1.89,2.52-3.08.61-1.19.91-2.49.91-3.89v-.14c0-1.31-.2-2.47-.59-3.5-.4-1.03-1.12-1.96-2.17-2.8s-2.46-1.6-4.24-2.28c-1.77-.68-4.06-1.29-6.86-1.85-2.94-.61-5.46-1.32-7.56-2.14-2.1-.82-3.81-1.77-5.14-2.87s-2.3-2.37-2.91-3.82c-.61-1.45-.91-3.1-.91-4.97v-.14c0-1.82.4-3.51,1.19-5.07.79-1.56,1.89-2.93,3.29-4.1,1.4-1.17,3.06-2.08,4.97-2.73,1.91-.65,4.01-.98,6.3-.98,3.55,0,6.62.49,9.21,1.47,2.59.98,5.12,2.47,7.59,4.48l-2.31,2.87c-2.33-2.01-4.68-3.43-7.04-4.27-2.36-.84-4.89-1.26-7.59-1.26-1.82,0-3.46.25-4.94.74-1.47.49-2.73,1.16-3.78,2-1.05.84-1.86,1.82-2.42,2.94-.56,1.12-.84,2.31-.84,3.57v.14c0,1.31.2,2.49.59,3.54.4,1.05,1.12,2.01,2.17,2.87,1.05.86,2.51,1.64,4.38,2.34,1.87.7,4.25,1.35,7.14,1.96,5.69,1.17,9.8,2.81,12.32,4.94,2.52,2.12,3.78,4.98,3.78,8.58v.14c0,1.96-.41,3.77-1.23,5.42Z" style="fill: #fff;"/>
  </g>
  <polygon points="289.13 161.14 228.9 207.2 371.34 255.39 371.34 216.42 297.64 161.14 289.13 161.14 289.13 161.14" style="fill: #fff;"/>
</svg>