<?xml version="1.0" encoding="UTF-8"?>
<svg id="a" data-name="Layer_1" xmlns="http://www.w3.org/2000/svg" width="210mm" height="210mm" viewBox="0 0 595.28 595.28">
  <polygon points="0 .28 0 595.55 595.28 595.55 595.28 .28 0 .28 0 .28"/>
  <g>
    <path d="M58.39,438.09c.21.44.58.85,1.12,1.23.54.38,1.29.73,2.25,1.06.96.32,2.17.66,3.64,1.01,1.62.41,3.05.87,4.3,1.36,1.25.5,2.29,1.11,3.11,1.83s1.45,1.55,1.88,2.51.64,2.08.64,3.37c0,1.47-.27,2.77-.81,3.92-.54,1.14-1.29,2.11-2.25,2.9-.96.79-2.11,1.39-3.46,1.8-1.35.41-2.83.62-4.44.62-2.38,0-4.65-.4-6.82-1.21-2.17-.81-4.18-2.05-6.03-3.72l3.26-3.87c1.5,1.29,3.01,2.28,4.53,2.97,1.52.69,3.26,1.03,5.19,1.03,1.67,0,3-.35,3.98-1.06.98-.7,1.47-1.66,1.47-2.86,0-.56-.1-1.06-.29-1.5-.19-.44-.54-.84-1.06-1.21-.51-.37-1.22-.71-2.12-1.03-.9-.32-2.07-.66-3.51-1.01-1.65-.38-3.11-.81-4.39-1.28-1.28-.47-2.35-1.06-3.22-1.76-.87-.7-1.53-1.55-1.99-2.55-.46-1-.68-2.21-.68-3.65,0-1.35.26-2.57.79-3.67.52-1.1,1.24-2.05,2.16-2.84s2.02-1.4,3.31-1.83c1.29-.43,2.69-.64,4.22-.64,2.26,0,4.29.33,6.09.99,1.8.66,3.5,1.62,5.08,2.88l-2.9,4.09c-1.41-1.03-2.8-1.81-4.18-2.35-1.38-.54-2.77-.81-4.18-.81-1.58,0-2.82.36-3.7,1.08-.88.72-1.32,1.59-1.32,2.62,0,.62.1,1.14.31,1.58Z" style="fill: #fff;"/>
    <path d="M89.28,446.27v12.98h-5.37v-30.8h5.37v12.8h14.78v-12.8h5.37v30.8h-5.37v-12.98h-14.78Z" style="fill: #fff;"/>
    <path d="M149.03,459.26h-5.72l-3.12-7.44h-14.56l-3.17,7.44h-5.54l13.55-31.02h5.02l13.55,31.02ZM132.89,434.7l-5.28,12.32h10.6l-5.32-12.32Z" style="fill: #fff;"/>
    <path d="M183.18,449.91c-.79,1.89-1.91,3.53-3.37,4.91-1.45,1.38-3.18,2.46-5.19,3.26-2.01.79-4.22,1.19-6.62,1.19h-11.48v-30.8h11.48c2.4,0,4.61.39,6.62,1.17,2.01.78,3.74,1.86,5.19,3.23,1.45,1.38,2.57,3.01,3.37,4.88s1.19,3.9,1.19,6.07-.4,4.2-1.19,6.09ZM177.92,439.68c-.51-1.28-1.24-2.39-2.16-3.34-.93-.94-2.05-1.68-3.38-2.21-1.32-.53-2.79-.8-4.41-.8h-6.09v21.03h6.09c1.62,0,3.09-.26,4.41-.77,1.32-.52,2.45-1.24,3.38-2.16.93-.93,1.65-2.03,2.16-3.31.51-1.28.77-2.69.77-4.22s-.26-2.94-.77-4.22Z" style="fill: #fff;"/>
    <path d="M215.91,433.34h-17.42v7.92h15.44v4.88h-15.44v8.23h17.64v4.88h-23.01v-30.8h22.79v4.88Z" style="fill: #fff;"/>
    <path d="M229.64,438.09c.21.44.58.85,1.12,1.23.54.38,1.29.73,2.25,1.06.96.32,2.17.66,3.64,1.01,1.62.41,3.05.87,4.3,1.36,1.25.5,2.29,1.11,3.11,1.83s1.45,1.55,1.88,2.51.64,2.08.64,3.37c0,1.47-.27,2.77-.81,3.92-.54,1.14-1.29,2.11-2.25,2.9-.96.79-2.11,1.39-3.46,1.8-1.35.41-2.83.62-4.44.62-2.38,0-4.65-.4-6.82-1.21-2.17-.81-4.18-2.05-6.03-3.72l3.26-3.87c1.5,1.29,3.01,2.28,4.53,2.97,1.52.69,3.26,1.03,5.19,1.03,1.67,0,3-.35,3.98-1.06.98-.7,1.47-1.66,1.47-2.86,0-.56-.1-1.06-.29-1.5-.19-.44-.54-.84-1.06-1.21-.51-.37-1.22-.71-2.12-1.03-.9-.32-2.07-.66-3.51-1.01-1.65-.38-3.11-.81-4.39-1.28-1.28-.47-2.35-1.06-3.22-1.76-.87-.7-1.53-1.55-1.99-2.55-.46-1-.68-2.21-.68-3.65,0-1.35.26-2.57.79-3.67.52-1.1,1.24-2.05,2.16-2.84s2.02-1.4,3.31-1.83c1.29-.43,2.69-.64,4.22-.64,2.26,0,4.29.33,6.09.99,1.8.66,3.5,1.62,5.08,2.88l-2.9,4.09c-1.41-1.03-2.8-1.81-4.18-2.35-1.38-.54-2.77-.81-4.18-.81-1.58,0-2.82.36-3.7,1.08-.88.72-1.32,1.59-1.32,2.62,0,.62.1,1.14.31,1.58Z" style="fill: #fff;"/>
  </g>
  <g>
    <path d="M271.17,459.26v-30.8h2.29v28.73h18.08v2.07h-20.37Z" style="fill: #fff;"/>
    <path d="M300.91,459.26v-30.8h2.29v30.8h-2.29Z" style="fill: #fff;"/>
    <path d="M327.8,459.47h-2.02l-13.55-31.02h2.55l12.06,28.34,12.1-28.34h2.42l-13.55,31.02Z" style="fill: #fff;"/>
    <path d="M350.06,459.26v-30.8h21.91v2.07h-19.62v12.19h17.64v2.07h-17.64v12.41h19.84v2.07h-22.13Z" style="fill: #fff;"/>
    <path d="M423.89,459.26v-26.75l-12.19,17.73h-.18l-12.19-17.73v26.75h-2.2v-30.8h2.16l12.36,18.22,12.36-18.22h2.16v30.8h-2.29Z" style="fill: #fff;"/>
    <path d="M461.38,452.02c-.62,1.69-1.48,3.1-2.6,4.25-1.12,1.14-2.44,2.01-3.98,2.6-1.54.59-3.25.88-5.13.88s-3.54-.29-5.08-.86-2.88-1.42-4-2.55-2-2.51-2.62-4.16c-.62-1.64-.92-3.55-.92-5.72v-18h2.29v17.78c0,3.67.92,6.49,2.75,8.47,1.83,1.98,4.39,2.97,7.68,2.97,1.55,0,2.96-.23,4.22-.7,1.26-.47,2.34-1.17,3.23-2.11.89-.94,1.58-2.11,2.07-3.52s.73-3.04.73-4.88v-18h2.29v17.73c0,2.2-.31,4.14-.92,5.83Z" style="fill: #fff;"/>
    <path d="M493.04,454.7c-.51,1.04-1.22,1.93-2.11,2.66-.9.73-1.97,1.3-3.21,1.72-1.25.41-2.62.62-4.11.62-2.46,0-4.69-.41-6.67-1.23-1.98-.82-3.89-2.05-5.74-3.7l1.5-1.72c.85.79,1.69,1.47,2.53,2.05s1.69,1.04,2.57,1.41c.88.37,1.8.65,2.77.84.97.19,2.02.29,3.17.29s2.2-.15,3.17-.46c.97-.31,1.79-.73,2.46-1.28.67-.54,1.2-1.19,1.58-1.94s.57-1.56.57-2.44v-.09c0-.82-.12-1.55-.37-2.2-.25-.64-.7-1.23-1.36-1.76-.66-.53-1.55-1-2.66-1.43-1.12-.42-2.55-.81-4.31-1.17-1.85-.38-3.43-.83-4.75-1.34-1.32-.51-2.4-1.11-3.23-1.8-.84-.69-1.44-1.49-1.83-2.4-.38-.91-.57-1.95-.57-3.12v-.09c0-1.14.25-2.21.75-3.19.5-.98,1.19-1.84,2.07-2.57.88-.73,1.92-1.3,3.12-1.72,1.2-.41,2.52-.62,3.96-.62,2.23,0,4.16.31,5.79.92,1.63.62,3.22,1.56,4.77,2.82l-1.45,1.8c-1.47-1.26-2.94-2.16-4.42-2.68-1.48-.53-3.07-.79-4.77-.79-1.14,0-2.18.15-3.1.46s-1.72.73-2.38,1.25-1.17,1.14-1.52,1.85c-.35.7-.53,1.45-.53,2.24v.09c0,.82.12,1.56.37,2.22.25.66.7,1.26,1.36,1.8.66.54,1.58,1.03,2.75,1.47,1.17.44,2.67.85,4.49,1.23,3.58.73,6.16,1.77,7.74,3.1,1.58,1.34,2.38,3.13,2.38,5.39v.09c0,1.23-.26,2.37-.77,3.41Z" style="fill: #fff;"/>
    <path d="M503.84,459.26v-30.8h2.29v30.8h-2.29Z" style="fill: #fff;"/>
    <path d="M541.44,456.59c-.87.66-1.79,1.23-2.77,1.69-.98.47-2.05.84-3.19,1.1-1.14.26-2.39.4-3.74.4-2.2,0-4.24-.41-6.12-1.23-1.88-.82-3.5-1.94-4.86-3.37-1.36-1.42-2.43-3.1-3.19-5.04-.76-1.94-1.14-4-1.14-6.2v-.09c0-2.17.39-4.22,1.17-6.16.78-1.94,1.85-3.63,3.21-5.08,1.36-1.45,2.98-2.6,4.86-3.43,1.88-.84,3.93-1.25,6.16-1.25,1.38,0,2.62.12,3.74.35,1.12.23,2.15.57,3.1,1.01.95.44,1.85.96,2.68,1.56.84.6,1.65,1.27,2.44,2l-1.63,1.67c-.67-.65-1.38-1.25-2.11-1.8-.73-.56-1.52-1.03-2.35-1.43-.84-.4-1.75-.71-2.73-.95-.98-.23-2.05-.35-3.19-.35-1.85,0-3.56.35-5.15,1.06s-2.96,1.68-4.11,2.93c-1.16,1.25-2.07,2.71-2.73,4.38-.66,1.67-.99,3.48-.99,5.41v.09c0,1.94.34,3.75,1.01,5.43s1.59,3.15,2.75,4.4c1.16,1.25,2.53,2.23,4.11,2.95,1.58.72,3.3,1.08,5.15,1.08,2.23,0,4.17-.41,5.81-1.23,1.64-.82,3.24-2.01,4.8-3.56l1.54,1.5c-.82.79-1.67,1.52-2.53,2.18Z" style="fill: #fff;"/>
  </g>
  <path d="M420.21,286.55c-.52-4.47,3.14-61.77,2.88-70.97-.26-9.2-1.38-55-12.3-68.61-20.68-25.76-117.26-1.31-143.43,6.83M376.04,135.47c-5.5-2.37-59.88-32.7-93.51-30.03-59.1,4.69-104.43,137.74-107.84,141.68M195.19,198.83c-6.8.26-50.86,3.87-60.28,23.84-9.42,19.98,10.34,37,28.4,50.73,32.85,24.97,109.01,48.1,188.32,46,79.31-2.1,114.04-6.23,110.98-39.17-1.83-19.71-31.06-32.82-39.7-36.76" style="fill: #fff;"/>
  <path d="M302.18,353.79c-1.69.21-5.28,1.81-6.33,3.82-1.06,2.02-10.77,33.79-22.8,37.09-12.04,3.29-36.53-4.78-43.92-14.77-7.39-9.99-12.03-30.18-12.67-35.49-.63-5.31-.63-8.71-4.86-10.31-4.22-1.59-6.12-1.81-8.02,2.44-1.9,4.25-5.91,17.64-9.71,21.04-3.8,3.4-8.87,6.8-15.41,5.53-6.54-1.27-24.28-9.14-28.71-17.64-4.43-8.5-8.66-42.51-9.08-46.97-.42-4.46-2.53-6.16-2.53-6.16,0,0,1.69-12.11,1.9-12.75.21-.64,3.17-1.49,3.17-1.49,0,0,43.28,14.88,52.78,25.93,9.5,11.05,7.6,14.77,11.19,16.58,3.59,1.81,8.23,4.25,10.56,3.4s5.7-5.87,9.92-5.87,17.74.45,27.45,3.95c9.71,3.51,46.24,16.37,47.93,17.43,1.69,1.06,1.69,4.25,1.69,4.25,0,0-.85,9.78-2.53,9.99h0Z" style="fill: #fff;"/>
  <polygon points="289.13 161.14 228.9 207.2 371.34 255.39 371.34 216.42 297.64 161.14 289.13 161.14 289.13 161.14" style="fill: #fff;"/>
</svg>