<?xml version="1.0" encoding="UTF-8"?>
<svg id="a" data-name="Layer_1" xmlns="http://www.w3.org/2000/svg" width="210mm" height="210mm" viewBox="0 0 595.28 595.28">
  <path d="M419.73,334.55c-.52-4.47,3.14-61.77,2.88-70.97-.26-9.2-1.38-55-12.3-68.61-20.68-25.76-117.26-1.32-143.43,6.83M375.56,183.48c-5.5-2.37-59.88-32.7-93.51-30.03-59.1,4.69-104.43,137.74-107.84,141.68M194.71,246.83c-6.8.26-50.86,3.87-60.28,23.84-9.42,19.98,10.34,37,28.4,50.73,32.85,24.97,109.01,48.1,188.32,46,79.31-2.1,114.04-6.23,110.98-39.17-1.83-19.71-31.06-32.82-39.7-36.76" style="fill: #fff;"/>
  <path d="M301.7,401.79c-1.69.21-5.28,1.81-6.33,3.83-1.06,2.02-10.77,33.79-22.8,37.09-12.04,3.29-36.53-4.78-43.92-14.77-7.39-9.99-12.03-30.18-12.67-35.49-.63-5.31-.63-8.71-4.86-10.31-4.22-1.59-6.12-1.81-8.02,2.44-1.9,4.25-5.91,17.64-9.71,21.04-3.8,3.4-8.87,6.8-15.41,5.53-6.54-1.27-24.28-9.14-28.71-17.64-4.43-8.5-8.66-42.51-9.08-46.97-.42-4.46-2.53-6.16-2.53-6.16,0,0,1.69-12.11,1.9-12.75.21-.64,3.17-1.49,3.17-1.49,0,0,43.28,14.88,52.78,25.93,9.5,11.05,7.6,14.77,11.19,16.58,3.59,1.81,8.23,4.25,10.56,3.4,2.32-.85,5.7-5.87,9.92-5.87s17.74.45,27.45,3.95c9.71,3.51,46.24,16.37,47.93,17.43,1.69,1.06,1.69,4.25,1.69,4.25,0,0-.85,9.78-2.53,9.99h0Z" style="fill: #fff;"/>
  <polygon points="288.65 209.14 228.42 255.21 370.86 303.4 370.86 264.42 297.16 209.14 288.65 209.14 288.65 209.14" style="fill: #fff;"/>
</svg>