<?xml version="1.0" encoding="UTF-8"?>
<svg id="a" data-name="Layer_1" xmlns="http://www.w3.org/2000/svg" width="1000" height="1000" viewBox="0 0 1000 1000">
  <path d="M499.8,795.61c162.82,0,294.8-131.99,294.8-294.8s-131.99-294.8-294.8-294.8S205,337.99,205,500.8s131.99,294.8,294.8,294.8h0Z" style="fill: #fff;"/>
  <path d="M622.37,482.35c-.52-4.47,3.14-61.77,2.88-70.97-.26-9.2-1.38-55-12.3-68.61-20.68-25.76-117.26-1.31-143.43,6.83M578.21,331.28c-5.5-2.37-59.88-32.7-93.51-30.03-59.1,4.69-104.43,137.74-107.84,141.68M397.36,394.63c-6.8.26-50.86,3.87-60.28,23.84-9.42,19.98,10.34,37,28.4,50.73,32.85,24.97,109.01,48.1,188.32,46,79.31-2.1,114.04-6.23,110.98-39.17-1.83-19.71-31.06-32.82-39.7-36.76M504.35,549.59c-1.69.21-5.28,1.81-6.33,3.83-1.06,2.02-10.77,33.79-22.8,37.09-12.04,3.29-36.53-4.78-43.92-14.77-7.39-9.99-12.03-30.18-12.67-35.49-.63-5.31-.63-8.71-4.86-10.31-4.22-1.59-6.12-1.81-8.02,2.44-1.9,4.25-5.91,17.64-9.71,21.04-3.8,3.4-8.87,6.8-15.41,5.53-6.54-1.28-24.28-9.14-28.71-17.64-4.43-8.5-8.66-42.51-9.08-46.97-.42-4.46-2.53-6.16-2.53-6.16,0,0,1.69-12.11,1.9-12.75.21-.64,3.17-1.49,3.17-1.49,0,0,43.28,14.88,52.78,25.93,9.5,11.05,7.6,14.77,11.19,16.58s8.23,4.25,10.56,3.4c2.32-.85,5.7-5.87,9.92-5.87s17.74.45,27.45,3.95c9.71,3.51,46.24,16.36,47.93,17.43,1.69,1.06,1.69,4.25,1.69,4.25,0,0-.85,9.78-2.53,9.99h0Z" style="fill: none; stroke: #231f20; stroke-linecap: round; stroke-width: 3.07px;"/>
  <path d="M310.84,659.57c5.24,0,8.91-2.78,8.91-7.45v-.07c0-4.13-2.74-6.02-8.02-7.31-4.78-1.14-5.92-2-5.92-3.92v-.07c0-1.64,1.5-2.96,4.06-2.96,2.28,0,4.53.89,6.77,2.57l2.35-3.31c-2.53-2.03-5.42-3.14-9.05-3.14-4.95,0-8.52,2.96-8.52,7.23v.07c0,4.6,2.99,6.16,8.3,7.45,4.63,1.07,5.63,2.03,5.63,3.81v.07c0,1.89-1.71,3.14-4.42,3.14-3.1,0-5.49-1.18-7.88-3.24l-2.64,3.14c2.99,2.67,6.59,3.99,10.41,3.99h0ZM326.7,659.22h4.38v-10.51h11.9v10.51h4.38v-24.95h-4.38v10.37h-11.9v-10.37h-4.38v24.95h0ZM353.43,659.22h4.49l2.57-6.02h11.8l2.53,6.02h4.63l-10.98-25.13h-4.06l-10.98,25.13h0ZM362.09,649.31l4.28-9.98,4.31,9.98h-8.59ZM385.51,659.22h9.3c7.84,0,13.26-5.45,13.26-12.47v-.07c0-7.02-5.42-12.4-13.26-12.4h-9.3v24.95h0ZM389.89,655.23v-16.96h4.92c5.24,0,8.66,3.6,8.66,8.48v.07c0,4.88-3.42,8.41-8.66,8.41h-4.92ZM415.16,659.22h18.68v-3.92h-14.29v-6.7h12.51v-3.92h-12.51v-6.49h14.11v-3.92h-18.5v24.95h0ZM449.55,659.57c5.24,0,8.91-2.78,8.91-7.45v-.07c0-4.13-2.74-6.02-8.02-7.31-4.77-1.14-5.92-2-5.92-3.92v-.07c0-1.64,1.5-2.96,4.06-2.96,2.28,0,4.53.89,6.77,2.57l2.35-3.31c-2.53-2.03-5.42-3.14-9.05-3.14-4.95,0-8.52,2.96-8.52,7.23v.07c0,4.6,2.99,6.16,8.3,7.45,4.63,1.07,5.63,2.03,5.63,3.81v.07c0,1.89-1.71,3.14-4.42,3.14-3.1,0-5.49-1.18-7.88-3.24l-2.64,3.14c2.99,2.67,6.59,3.99,10.41,3.99h0ZM478.38,659.22h16.5v-1.71h-14.65v-23.24h-1.85v24.95h0ZM502.48,659.22h1.85v-24.95h-1.85v24.95h0ZM522.61,659.4h1.64l10.98-25.13h-1.96l-9.8,22.95-9.76-22.95h-2.07l10.98,25.13h0ZM542.28,659.22h17.93v-1.71h-16.07v-10.02h14.29v-1.71h-14.29v-9.8h15.9v-1.71h-17.75v24.95h0ZM580.42,659.22h1.78v-21.67l9.87,14.36h.14l9.87-14.36v21.67h1.85v-24.95h-1.75l-10.01,14.75-10.02-14.75h-1.75v24.95h0ZM622.97,659.61c6.06,0,10.23-3.81,10.23-10.98v-14.36h-1.85v14.58c0,6.02-3.24,9.09-8.3,9.09s-8.45-3.39-8.45-9.27v-14.4h-1.85v14.58c0,6.98,4.24,10.76,10.23,10.76h0ZM650.45,659.57c4.81,0,8.27-2.78,8.27-6.81v-.07c0-3.64-2.42-5.7-8.2-6.88-5.92-1.21-7.27-2.81-7.27-5.45v-.07c0-2.6,2.42-4.7,6.09-4.7,2.74,0,5.1.78,7.45,2.82l1.18-1.46c-2.53-2.03-4.92-3.03-8.55-3.03-4.63,0-8.02,2.85-8.02,6.56v.07c0,3.78,2.42,5.81,8.41,7.02,5.67,1.14,7.06,2.67,7.06,5.31v.07c0,2.85-2.57,4.95-6.31,4.95s-6.2-1.18-8.95-3.71l-1.21,1.39c2.99,2.67,6.06,3.99,10.05,3.99h0ZM666.85,659.22h1.85v-24.95h-1.85v24.95h0ZM689.44,659.65c4.42,0,7.27-1.75,9.91-4.35l-1.25-1.21c-2.53,2.49-4.99,3.88-8.59,3.88-5.95,0-10.55-4.92-10.55-11.23v-.07c0-6.27,4.53-11.16,10.51-11.16,3.74,0,6.24,1.57,8.41,3.67l1.32-1.35c-2.57-2.35-5.24-3.99-9.69-3.99-7.2,0-12.47,5.84-12.47,12.9v.07c0,7.16,5.27,12.83,12.4,12.83h0Z" style="fill: #231f20;"/>
</svg>