<?xml version="1.0" encoding="UTF-8"?>
<svg id="a" data-name="Layer_1" xmlns="http://www.w3.org/2000/svg" width="595.28" height="595.28" xmlns:xlink="http://www.w3.org/1999/xlink" viewBox="0 0 595.28 595.28">
  <defs>
    <clipPath id="b">
      <rect width="595.28" height="595.28" style="fill: none;"/>
    </clipPath>
  </defs>
  <rect y="0" width="595.28" height="595.28" style="fill: #231f20;"/>
  <g style="clip-path: url(#b);">
    <path d="M195.19,191.47c-6.8.26-50.86,3.87-60.28,23.84-9.42,19.98,10.34,37.01,28.4,50.73,32.85,24.97,109.01,48.1,188.32,46,79.31-2.1,114.04-6.23,110.98-39.17-1.83-19.71-31.06-32.82-39.7-36.76M376.04,128.11c-5.5-2.37-59.88-32.7-93.51-30.03-59.1,4.69-104.43,137.74-107.84,141.68M420.21,279.19c-.52-4.47,3.14-61.77,2.88-70.97-.26-9.2-1.38-55-12.3-68.61-20.68-25.76-117.26-1.31-143.43,6.84" style="fill: none; stroke: #fff; stroke-linecap: round; stroke-width: 3.07px;"/>
    <path d="M302.18,346.43c-1.69.21-5.28,1.81-6.33,3.83s-10.77,33.79-22.8,37.09c-12.04,3.29-36.53-4.78-43.92-14.77-7.39-9.99-12.03-30.18-12.67-35.49-.63-5.31-.63-8.71-4.86-10.31-4.22-1.59-6.12-1.81-8.02,2.44-1.9,4.25-5.91,17.64-9.71,21.04-3.8,3.4-8.87,6.8-15.41,5.53-6.54-1.28-24.28-9.14-28.71-17.64-4.43-8.5-8.66-42.51-9.08-46.97-.42-4.46-2.53-6.16-2.53-6.16,0,0,1.69-12.12,1.9-12.75.21-.64,3.17-1.49,3.17-1.49,0,0,43.28,14.88,52.78,25.93,9.5,11.05,7.6,14.77,11.19,16.58,3.59,1.81,8.23,4.25,10.56,3.4,2.32-.85,5.7-5.87,9.92-5.87s17.74.45,27.45,3.95c9.71,3.51,46.24,16.37,47.93,17.43,1.69,1.06,1.69,4.25,1.69,4.25,0,0-.85,9.78-2.53,9.99Z" style="fill: none; stroke: #fff; stroke-linecap: round; stroke-width: 3.07px;"/>
    <path d="M531.74,459.51c5.46,0,8.98-2.16,12.23-5.37l-1.54-1.5c-3.12,3.08-6.16,4.8-10.6,4.8-7.35,0-13.02-6.07-13.02-13.86v-.09c0-7.74,5.59-13.77,12.98-13.77,4.62,0,7.7,1.94,10.38,4.53l1.63-1.67c-3.17-2.9-6.47-4.93-11.97-4.93-8.89,0-15.4,7.22-15.4,15.93v.09c0,8.84,6.51,15.84,15.31,15.84M503.84,458.98h2.29v-30.8h-2.29v30.8ZM483.6,459.42c5.94,0,10.21-3.43,10.21-8.4v-.09c0-4.49-2.99-7.04-10.12-8.49-7.3-1.5-8.98-3.48-8.98-6.73v-.09c0-3.21,2.99-5.81,7.52-5.81,3.39,0,6.29.97,9.2,3.48l1.45-1.8c-3.12-2.51-6.07-3.74-10.56-3.74-5.72,0-9.9,3.52-9.9,8.1v.09c0,4.66,2.99,7.17,10.38,8.67,7,1.41,8.71,3.3,8.71,6.56v.09c0,3.52-3.17,6.12-7.79,6.12s-7.66-1.45-11.04-4.58l-1.5,1.72c3.7,3.3,7.48,4.93,12.41,4.93M449.68,459.46c7.48,0,12.63-4.71,12.63-13.55v-17.73h-2.29v18c0,7.44-4,11.22-10.25,11.22s-10.43-4.18-10.43-11.44v-17.78h-2.29v18c0,8.62,5.24,13.29,12.63,13.29M397.14,458.98h2.2v-26.75l12.19,17.73h.18l12.19-17.73v26.75h2.29v-30.8h-2.16l-12.36,18.22-12.36-18.22h-2.16v30.8ZM350.06,458.98h22.13v-2.11h-19.84v-12.36h17.64v-2.11h-17.64v-12.1h19.62v-2.11h-21.91v30.8ZM325.78,459.2h2.02l13.55-31.02h-2.42l-12.1,28.34-12.06-28.34h-2.55l13.55,31.02ZM300.92,458.98h2.29v-30.8h-2.29v30.8ZM271.17,458.98h20.37v-2.11h-18.08v-28.69h-2.29v30.8ZM235.58,459.42c6.47,0,11-3.43,11-9.2v-.09c0-5.1-3.39-7.44-9.9-9.02-5.9-1.41-7.3-2.46-7.3-4.84v-.09c0-2.02,1.85-3.65,5.02-3.65,2.82,0,5.59,1.1,8.36,3.17l2.9-4.09c-3.12-2.51-6.69-3.87-11.18-3.87-6.12,0-10.52,3.65-10.52,8.93v.09c0,5.68,3.7,7.61,10.25,9.2,5.72,1.32,6.95,2.51,6.95,4.71v.09c0,2.33-2.11,3.87-5.46,3.87-3.83,0-6.78-1.45-9.72-4l-3.26,3.87c3.7,3.3,8.14,4.93,12.85,4.93M193.12,458.98h23.06v-4.84h-17.64v-8.27h15.44v-4.84h-15.44v-8.01h17.42v-4.84h-22.84v30.8ZM161.92,454.05v-20.94h6.07c6.47,0,10.69,4.44,10.69,10.47v.09c0,6.03-4.22,10.38-10.69,10.38h-6.07ZM156.51,458.98h11.48c9.68,0,16.37-6.73,16.37-15.4v-.09c0-8.67-6.69-15.31-16.37-15.31h-11.48v30.8ZM127.6,446.75l5.28-12.32,5.32,12.32h-10.6ZM116.91,458.98h5.54l3.17-7.44h14.56l3.12,7.44h5.72l-13.55-31.02h-5.02l-13.55,31.02ZM83.91,458.98h5.41v-12.98h14.7v12.98h5.41v-30.8h-5.41v12.8h-14.7v-12.8h-5.41v30.8ZM64.33,459.42c6.47,0,11-3.43,11-9.2v-.09c0-5.1-3.39-7.44-9.9-9.02-5.9-1.41-7.3-2.46-7.3-4.84v-.09c0-2.02,1.85-3.65,5.02-3.65,2.82,0,5.59,1.1,8.36,3.17l2.9-4.09c-3.12-2.51-6.69-3.87-11.18-3.87-6.12,0-10.52,3.65-10.52,8.93v.09c0,5.68,3.7,7.61,10.25,9.2,5.72,1.32,6.95,2.51,6.95,4.71v.09c0,2.33-2.11,3.87-5.46,3.87-3.83,0-6.78-1.45-9.72-4l-3.26,3.87c3.7,3.3,8.14,4.93,12.85,4.93" style="fill: #fff;"/>
  </g>
</svg>